<svg width="74" height="60" viewBox="0 0 74 60" fill="none" xmlns="http://www.w3.org/2000/svg">
<path d="M27.6531 59.9795C27.5318 59.9795 27.4068 59.9604 27.2839 59.9185C26.6701 59.7159 26.3415 59.0539 26.5456 58.4414L28.1037 53.7677C28.3072 53.1556 28.9679 52.824 29.5804 53.0298C30.1942 53.2321 30.5228 53.8946 30.3187 54.5066L28.7608 59.1803C28.5996 59.6709 28.1434 59.9795 27.6531 59.9795Z" fill="#595354"/>
<path d="M49.4641 59.9795C48.9739 59.9795 48.5177 59.6709 48.3565 59.1803L46.7986 54.5066C46.5945 53.8946 46.923 53.2321 47.5369 53.0298C48.1499 52.824 48.8119 53.1556 49.0136 53.7677L50.5717 58.4414C50.7756 59.0539 50.447 59.7159 49.8332 59.9185C49.7104 59.9604 49.5855 59.9795 49.4641 59.9795Z" fill="#595354"/>
<path d="M35.442 22.9789C31.1394 22.9789 27.6523 26.4655 27.6523 30.7686V46.3477H49.4632V30.7686C49.4632 26.4655 45.9761 22.9789 41.6735 22.9789H35.442Z" fill="white"/>
<path d="M28.8221 45.1791H48.2958V30.7685C48.2958 27.1163 45.326 24.1474 41.6747 24.1474H35.4432C31.7919 24.1474 28.8221 27.1163 28.8221 30.7685V45.1791ZM49.4644 47.5156H27.6535C27.0084 47.5156 26.4851 46.9924 26.4851 46.3476V30.7685C26.4851 25.8282 30.5046 21.8104 35.4432 21.8104H41.6747C46.6133 21.8104 50.6328 25.8282 50.6328 30.7685V46.3476C50.6328 46.9924 50.1095 47.5156 49.4644 47.5156Z" fill="#595354"/>
<path d="M30.7685 46.3477H22.9788V40.1161C22.9788 38.396 24.3734 37 26.0944 37H27.6523C29.3734 37 30.7685 38.396 30.7685 40.1161V46.3477Z" fill="white"/>
<path d="M24.1483 45.1791H29.6008V40.116C29.6008 39.0425 28.7273 38.1686 27.6533 38.1686H26.0954C25.0214 38.1686 24.1483 39.0425 24.1483 40.116V45.1791ZM30.7694 47.5156H22.9797C22.3346 47.5156 21.8113 46.9924 21.8113 46.3476V40.116C21.8113 37.7538 23.7331 35.8315 26.0954 35.8315H27.6533C30.0163 35.8315 31.9374 37.7538 31.9374 40.116V46.3476C31.9374 46.9924 31.4141 47.5156 30.7694 47.5156Z" fill="#595354"/>
<path d="M54.1371 46.3477H46.3474V40.1161C46.3474 38.396 47.7425 37 49.4635 37H51.0214C52.7424 37 54.1371 38.396 54.1371 40.1161V46.3477Z" fill="white"/>
<path d="M47.5167 45.1791H52.9692V40.116C52.9692 39.0425 52.0962 38.1686 51.0221 38.1686H49.4642C48.3902 38.1686 47.5167 39.0425 47.5167 40.116V45.1791ZM54.1378 47.5156H46.3481C45.7035 47.5156 45.1802 46.9924 45.1802 46.3476V40.116C45.1802 37.7538 47.1015 35.8315 49.4642 35.8315H51.0221C53.3852 35.8315 55.3062 37.7538 55.3062 40.116V46.3476C55.3062 46.9924 54.7829 47.5156 54.1378 47.5156Z" fill="#595354"/>
<path d="M51.0211 54.1377H26.0944C24.3734 54.1377 22.9788 52.7414 22.9788 51.0216V46.3481H54.1368V51.0216C54.1368 52.7414 52.7421 54.1377 51.0211 54.1377Z" fill="#595354"/>
<path d="M24.1483 47.5161V51.0216C24.1483 52.0952 25.0214 52.9692 26.0954 52.9692H51.022C52.0961 52.9692 52.9691 52.0952 52.9691 51.0216V47.5161H24.1483ZM51.022 55.3057H26.0954C23.7331 55.3057 21.8113 53.3834 21.8113 51.0216V46.3481C21.8113 45.703 22.3346 45.1797 22.9797 45.1797H54.1377C54.7828 45.1797 55.3061 45.703 55.3061 46.3481V51.0216C55.3061 53.3834 53.3851 55.3057 51.022 55.3057Z" fill="#595354"/>
<path d="M38.5583 31.9371C37.9135 31.9371 37.3901 31.4138 37.3901 30.7687V29.2106C37.3901 28.5655 37.9135 28.0422 38.5583 28.0422C39.2034 28.0422 39.7267 28.5655 39.7267 29.2106V30.7687C39.7267 31.4138 39.2034 31.9371 38.5583 31.9371ZM38.5583 41.2842C37.9135 41.2842 37.3901 40.7609 37.3901 40.1162V35.4422C37.3901 34.7969 37.9135 34.2736 38.5583 34.2736C39.2034 34.2736 39.7267 34.7969 39.7267 35.4422V40.1162C39.7267 40.7609 39.2034 41.2842 38.5583 41.2842Z" fill="#595354"/>
<path d="M12.0741 53.748C11.4288 53.748 10.9055 53.2248 10.9055 52.5795V1.16841C10.9055 0.523275 11.4288 -2.38105e-05 12.0741 -2.38105e-05C12.7192 -2.38105e-05 13.2425 0.523275 13.2425 1.16841V52.5795C13.2425 53.2248 12.7192 53.748 12.0741 53.748Z" fill="#595354"/>
<path d="M1.1687 16.748H22.9794L19.8634 1.16879H4.28423L1.1687 16.748Z" fill="#F65D77"/>
<path d="M2.59351 15.579H21.5542L18.905 2.33695H5.24274L2.59351 15.579ZM22.9792 17.916H1.16849C0.818275 17.916 0.48661 17.7583 0.264452 17.4895C0.0424503 17.2179 -0.0455776 16.861 0.022503 16.5187L3.13851 0.939643C3.24678 0.392505 3.72769 -0.000102587 4.28402 -0.000102587H19.8632C20.42 -0.000102587 20.9009 0.392505 21.0092 0.939643L24.1247 16.5187C24.1933 16.861 24.105 17.2179 23.8828 17.4895C23.6606 17.7583 23.3289 17.916 22.9792 17.916Z" fill="#595354"/>
<path d="M15.9687 52.5799H8.17914L6.62109 58.8115H17.5263L15.9687 52.5799Z" fill="white"/>
<path d="M8.1185 57.6424H16.0299L15.0562 53.748H9.09219L8.1185 57.6424ZM17.5266 59.9795H6.62136C6.26241 59.9795 5.92139 59.8143 5.69939 59.5308C5.47895 59.2472 5.40121 58.8759 5.4883 58.5275L7.04621 52.2959C7.1752 51.7752 7.64364 51.411 8.17941 51.411H15.9689C16.5047 51.411 16.9727 51.7752 17.1017 52.2959L18.6598 58.5275C18.7467 58.8759 18.6691 59.2472 18.4487 59.5308C18.2265 59.8143 17.886 59.9795 17.5266 59.9795Z" fill="#595354"/>
<path d="M18.3054 19.474C17.6607 19.474 17.1375 18.9507 17.1375 18.3059V16.748C17.1375 16.1027 17.6607 15.5794 18.3054 15.5794C18.9507 15.5794 19.474 16.1027 19.474 16.748V18.3059C19.474 18.9507 18.9507 19.474 18.3054 19.474ZM18.3054 25.7061C17.6607 25.7061 17.1375 25.1828 17.1375 24.5375V22.9794C17.1375 22.3343 17.6607 21.811 18.3054 21.811C18.9507 21.811 19.474 22.3343 19.474 22.9794V24.5375C19.474 25.1828 18.9507 25.7061 18.3054 25.7061Z" fill="#595354"/>
<path d="M60.3691 58.8115H72.8329V40.1167H60.3691V58.8115Z" fill="white"/>
<path d="M61.5367 57.6424H71.6633V41.2842H61.5367V57.6424ZM72.8319 59.9795H60.3682C59.7235 59.9795 59.2002 59.4562 59.2002 58.8111V40.1163C59.2002 39.471 59.7235 38.9477 60.3682 38.9477H72.8319C73.4765 38.9477 73.9998 39.471 73.9998 40.1163V58.8111C73.9998 59.4562 73.4765 59.9795 72.8319 59.9795Z" fill="#57565C"/>
<path d="M72.8319 53.748H60.3682C59.7235 53.748 59.2002 53.2248 59.2002 52.5795C59.2002 51.9344 59.7235 51.4111 60.3682 51.4111H72.8319C73.4765 51.4111 73.9998 51.9344 73.9998 52.5795C73.9998 53.2248 73.4765 53.748 72.8319 53.748Z" fill="#57565C"/>
<path d="M72.8319 47.5156H60.3682C59.7235 47.5156 59.2002 46.9924 59.2002 46.3476C59.2002 45.7024 59.7235 45.1791 60.3682 45.1791H72.8319C73.4765 45.1791 73.9998 45.7024 73.9998 46.3476C73.9998 46.9924 73.4765 47.5156 72.8319 47.5156Z" fill="#57565C"/>
<path d="M69.7163 40.1162H63.4848L61.9268 32.3266H71.2743L69.7163 40.1162Z" fill="#F65D77"/>
<path d="M64.4428 38.9477H68.7577L69.8489 33.4946H63.3515L64.4428 38.9477ZM69.716 41.2842H63.4845C62.9275 41.2842 62.4466 40.8916 62.3385 40.3449L60.7805 32.5554C60.7125 32.2126 60.8007 31.856 61.0229 31.5847C61.245 31.3158 61.5767 31.1582 61.9264 31.1582H71.274C71.6238 31.1582 71.9555 31.3158 72.1776 31.5847C72.3996 31.856 72.488 32.2126 72.4201 32.5554L70.862 40.3449C70.7538 40.8916 70.2729 41.2842 69.716 41.2842Z" fill="#595354"/>
<path d="M66.6006 21.4206C64.8796 21.4206 63.4851 22.8166 63.4851 24.5366V32.3262H69.7166V24.5366C69.7166 22.8166 68.322 21.4206 66.6006 21.4206Z" fill="white"/>
<path d="M64.6532 31.1586H68.5478V24.5375C68.5478 23.464 67.6748 22.59 66.6003 22.59C65.5262 22.59 64.6532 23.464 64.6532 24.5375V31.1586ZM69.7162 33.4951H63.4847C62.8394 33.4951 62.3162 32.9719 62.3162 32.3271V24.5375C62.3162 22.1757 64.238 20.2529 66.6003 20.2529C68.9633 20.2529 70.8848 22.1757 70.8848 24.5375V32.3271C70.8848 32.9719 70.3615 33.4951 69.7162 33.4951Z" fill="#595354"/>
<path d="M63.4847 27.2627H61.9266C61.2815 27.2627 60.7581 26.7394 60.7581 26.0947C60.7581 25.4495 61.2815 24.9262 61.9266 24.9262H63.4847C64.1298 24.9262 64.6531 25.4495 64.6531 26.0947C64.6531 26.7394 64.1298 27.2627 63.4847 27.2627Z" fill="#595354"/>
<path d="M71.2743 25.7061H69.7163C69.0712 25.7061 68.5479 25.1828 68.5479 24.5375C68.5479 23.8924 69.0712 23.3691 69.7163 23.3691H71.2743C71.9195 23.3691 72.4428 23.8924 72.4428 24.5375C72.4428 25.1828 71.9195 25.7061 71.2743 25.7061Z" fill="#595354"/>
<path d="M66.6 22.5898C65.9552 22.5898 65.4319 22.0665 65.4319 21.4214V19.8633C65.4319 19.2187 65.9552 18.6954 66.6 18.6954C67.2452 18.6954 67.7685 19.2187 67.7685 19.8633V21.4214C67.7685 22.0665 67.2452 22.5898 66.6 22.5898Z" fill="#595354"/>
</svg>
