<svg width="60" height="60" viewBox="0 0 60 60" fill="none" xmlns="http://www.w3.org/2000/svg">
<path d="M44.4533 10.8799H53.3441C54.6147 10.8799 55.6443 9.85036 55.6443 8.57931V8.5718C55.6443 7.14917 54.4007 5.90603 53.1575 5.90603C54.53 5.90603 55.6443 4.79299 55.6443 3.41898C55.6443 2.0451 54.53 0.93232 53.1575 0.93232H44.4533C41.7064 0.93232 39.4795 3.15925 39.4795 5.90603C39.4795 8.65292 41.7064 10.8798 44.4533 10.8798" fill="#F65D77"/>
<path d="M44.4531 1.86456C42.2247 1.86456 40.4119 3.67773 40.4119 5.90598C40.4119 8.13399 42.2247 9.94718 44.4531 9.94718H53.3439C54.0985 9.94718 54.7114 9.33421 54.7114 8.57919C54.7114 7.63815 53.8574 6.83872 53.1573 6.83872C52.6424 6.83872 52.2248 6.42064 52.2248 5.90598C52.2248 5.39107 52.6424 4.9734 53.1573 4.9734C54.0138 4.9734 54.7114 4.27587 54.7114 3.41902C54.7114 2.56253 54.0138 1.86456 53.1573 1.86456H44.4531ZM53.3439 11.8125H44.4531C41.1965 11.8125 38.5466 9.16257 38.5466 5.90598C38.5466 2.64915 41.1965 -0.000383919 44.4531 -0.000383919H53.1573C55.0434 -0.000383919 56.5767 1.53395 56.5767 3.41902C56.5767 4.42882 56.1365 5.33788 55.4378 5.96457C56.1266 6.63703 56.5767 7.58105 56.5767 8.57183C56.5767 10.3624 55.127 11.8125 53.3439 11.8125Z" fill="#595354"/>
<path d="M53.1574 6.83887H44.4532C43.9385 6.83887 43.5205 6.42079 43.5205 5.90613C43.5205 5.39122 43.9385 4.97355 44.4532 4.97355H53.1574C53.6721 4.97355 54.0898 5.39122 54.0898 5.90613C54.0898 6.42079 53.6721 6.83887 53.1574 6.83887Z" fill="#595354"/>
<path d="M3.42 32.0184H55.6445C57.0174 32.0184 58.1315 33.1311 58.1315 34.5055C58.1315 35.8794 57.0174 36.9922 55.6445 36.9922H3.42C2.04711 36.9922 0.932861 35.8794 0.932861 34.5055C0.932861 33.1311 2.04711 32.0184 3.42 32.0184Z" fill="white"/>
<path d="M3.41972 32.951C2.56274 32.951 1.8653 33.6486 1.8653 34.5055C1.8653 35.362 2.56274 36.0596 3.41972 36.0596H55.6442C56.501 36.0596 57.1985 35.362 57.1985 34.5055C57.1985 33.6486 56.501 32.951 55.6442 32.951H3.41972ZM55.6442 37.9248H3.41972C1.53317 37.9248 0 36.3904 0 34.5055C0 32.62 1.53317 31.0858 3.41972 31.0858H55.6442C57.5306 31.0858 59.0638 32.62 59.0638 34.5055C59.0638 36.3904 57.5306 37.9248 55.6442 37.9248Z" fill="#595354"/>
<path d="M10.8798 53.1572H17.097L14.6104 58.1309H9.63623L10.8798 53.1572Z" fill="white"/>
<path d="M10.8318 57.1985H14.0348L15.5891 54.0897H11.6087L10.8318 57.1985ZM14.6108 59.0635H9.63663C9.35076 59.0635 9.07831 58.9316 8.90063 58.7053C8.72542 58.479 8.66312 58.1834 8.73151 57.9046L9.97496 52.9308C10.0783 52.5156 10.4526 52.2244 10.8802 52.2244H17.0974C17.4206 52.2244 17.7216 52.3911 17.8919 52.6671C18.06 52.9421 18.0759 53.2854 17.9318 53.5751L15.445 58.5488C15.2871 58.8632 14.9635 59.0635 14.6108 59.0635Z" fill="#595354"/>
<path d="M46.9399 53.1572H40.7227L43.2093 58.1309H48.1835L46.9399 53.1572Z" fill="white"/>
<path d="M43.7869 57.1985H46.9888L46.2116 54.0897H42.2328L43.7869 57.1985ZM48.1841 59.0635H43.2099C42.8572 59.0635 42.5335 58.8632 42.3756 58.5488L39.8889 53.5751C39.7444 53.2854 39.7606 52.9421 39.9298 52.6671C40.1001 52.3911 40.4 52.2244 40.7233 52.2244H46.9405C47.368 52.2244 47.7424 52.5156 47.8456 52.9308L49.0892 57.9046C49.1576 58.1834 49.0954 58.479 48.9186 58.7053C48.742 58.9316 48.4698 59.0635 48.1841 59.0635Z" fill="#595354"/>
<path d="M3.41968 36.9924H55.6441V43.2097C55.6441 48.7033 51.1902 53.1572 45.6966 53.1572H13.3671C7.87346 53.1572 3.41968 48.7033 3.41968 43.2097V36.9924Z" fill="white"/>
<path d="M4.35174 37.9251V43.2097C4.35174 48.181 8.39567 52.2245 13.367 52.2245H45.6964C50.6677 52.2245 54.7113 48.181 54.7113 43.2097V37.9251H4.35174ZM45.6964 54.0898H13.367C7.36858 54.0898 2.48682 49.2096 2.48682 43.2097V36.9925C2.48682 36.4779 2.90448 36.0599 3.41951 36.0599H55.644C56.1589 36.0599 56.5766 36.4779 56.5766 36.9925V43.2097C56.5766 49.2096 51.6959 54.0898 45.6964 54.0898Z" fill="#595354"/>
<path d="M18.3411 10.8799C18.3411 8.13311 16.1141 5.9061 13.3673 5.9061C10.6204 5.9061 8.39355 8.13311 8.39355 10.8799H18.3411Z" fill="white"/>
<path d="M9.43515 9.94718H17.2988C16.8773 8.16644 15.2743 6.83872 13.3671 6.83872C11.4595 6.83872 9.8568 8.16644 9.43515 9.94718ZM18.3408 11.8125H8.39328C7.87837 11.8125 7.46069 11.3944 7.46069 10.8798C7.46069 7.6233 10.1102 4.9734 13.3671 4.9734C16.6235 4.9734 19.2734 7.6233 19.2734 10.8798C19.2734 11.3944 18.8554 11.8125 18.3408 11.8125Z" fill="#57565C"/>
<path d="M3.41951 32.9512C2.90448 32.9512 2.48682 32.5335 2.48682 32.0185V5.90623C2.48682 2.6494 5.13635 -0.000133045 8.39318 -0.000133045C11.6496 -0.000133045 14.2995 2.6494 14.2995 5.90623C14.2995 6.4209 13.8815 6.83897 13.367 6.83897C12.8519 6.83897 12.4342 6.4209 12.4342 5.90623C12.4342 3.67798 10.6212 1.86481 8.39318 1.86481C6.16493 1.86481 4.35174 3.67798 4.35174 5.90623V32.0185C4.35174 32.5335 3.93405 32.9512 3.41951 32.9512Z" fill="#595354"/>
<path d="M8.39328 18.0301C7.87837 18.0301 7.46069 17.6121 7.46069 17.0974V15.8539C7.46069 15.3389 7.87837 14.9213 8.39328 14.9213C8.90794 14.9213 9.32561 15.3389 9.32561 15.8539V17.0974C9.32561 17.6121 8.90794 18.0301 8.39328 18.0301ZM8.39328 23.0039C7.87837 23.0039 7.46069 22.5858 7.46069 22.0712V20.8277C7.46069 20.3131 7.87837 19.8951 8.39328 19.8951C8.90794 19.8951 9.32561 20.3131 9.32561 20.8277V22.0712C9.32561 22.5858 8.90794 23.0039 8.39328 23.0039ZM8.39328 27.9775C7.87837 27.9775 7.46069 27.5595 7.46069 27.045V25.8014C7.46069 25.2869 7.87837 24.8688 8.39328 24.8688C8.90794 24.8688 9.32561 25.2869 9.32561 25.8014V27.045C9.32561 27.5595 8.90794 27.9775 8.39328 27.9775Z" fill="#595354"/>
<path d="M13.3673 18.0301C12.8523 18.0301 12.4346 17.6121 12.4346 17.0974V15.8539C12.4346 15.3389 12.8523 14.9213 13.3673 14.9213C13.8818 14.9213 14.2999 15.3389 14.2999 15.8539V17.0974C14.2999 17.6121 13.8818 18.0301 13.3673 18.0301ZM13.3673 23.0039C12.8523 23.0039 12.4346 22.5858 12.4346 22.0712V20.8277C12.4346 20.3131 12.8523 19.8951 13.3673 19.8951C13.8818 19.8951 14.2999 20.3131 14.2999 20.8277V22.0712C14.2999 22.5858 13.8818 23.0039 13.3673 23.0039ZM13.3673 27.9775C12.8523 27.9775 12.4346 27.5595 12.4346 27.045V25.8014C12.4346 25.2869 12.8523 24.8688 13.3673 24.8688C13.8818 24.8688 14.2999 25.2869 14.2999 25.8014V27.045C14.2999 27.5595 13.8818 27.9775 13.3673 27.9775Z" fill="#595354"/>
<path d="M18.3412 18.0301C17.8261 18.0301 17.4084 17.6121 17.4084 17.0974V15.8539C17.4084 15.3389 17.8261 14.9213 18.3412 14.9213C18.8557 14.9213 19.2737 15.3389 19.2737 15.8539V17.0974C19.2737 17.6121 18.8557 18.0301 18.3412 18.0301ZM18.3412 23.0039C17.8261 23.0039 17.4084 22.5858 17.4084 22.0712V20.8277C17.4084 20.3131 17.8261 19.8951 18.3412 19.8951C18.8557 19.8951 19.2737 20.3131 19.2737 20.8277V22.0712C19.2737 22.5858 18.8557 23.0039 18.3412 23.0039ZM18.3412 27.9775C17.8261 27.9775 17.4084 27.5595 17.4084 27.045V25.8014C17.4084 25.2869 17.8261 24.8688 18.3412 24.8688C18.8557 24.8688 19.2737 25.2869 19.2737 25.8014V27.045C19.2737 27.5595 18.8557 27.9775 18.3412 27.9775Z" fill="#595354"/>
<path d="M9.63638 43.5205H3.41951C2.90448 43.5205 2.48682 43.1029 2.48682 42.5878C2.48682 42.0733 2.90448 41.6553 3.41951 41.6553H9.63638C10.1513 41.6553 10.569 42.0733 10.569 42.5878C10.569 43.1029 10.1513 43.5205 9.63638 43.5205ZM14.6105 43.5205H13.367C12.8519 43.5205 12.4342 43.1029 12.4342 42.5878C12.4342 42.0733 12.8519 41.6553 13.367 41.6553H14.6105C15.1251 41.6553 15.5427 42.0733 15.5427 42.5878C15.5427 43.1029 15.1251 43.5205 14.6105 43.5205ZM22.071 43.5205H18.3407C17.8257 43.5205 17.408 43.1029 17.408 42.5878C17.408 42.0733 17.8257 41.6553 18.3407 41.6553H22.071C22.5859 41.6553 23.0035 42.0733 23.0035 42.5878C23.0035 43.1029 22.5859 43.5205 22.071 43.5205Z" fill="#595354"/>
<path d="M58.1307 11.8125H36.9923C36.4773 11.8125 36.0596 11.3944 36.0596 10.8798C36.0596 10.3649 36.4773 9.94718 36.9923 9.94718H58.1307C58.6453 9.94718 59.0633 10.3649 59.0633 10.8798C59.0633 11.3944 58.6453 11.8125 58.1307 11.8125Z" fill="#595354"/>
<path d="M40.1013 14.2998C39.5864 14.2998 39.1687 13.8821 39.1687 13.3671V10.8804C39.1687 10.3655 39.5864 9.94782 40.1013 9.94782C40.6159 9.94782 41.034 10.3655 41.034 10.8804V13.3671C41.034 13.8821 40.6159 14.2998 40.1013 14.2998Z" fill="#595354"/>
<path d="M55.0219 14.2998C54.5074 14.2998 54.0894 13.8821 54.0894 13.3671V10.8804C54.0894 10.3655 54.5074 9.94782 55.0219 9.94782C55.537 9.94782 55.9546 10.3655 55.9546 10.8804V13.3671C55.9546 13.8821 55.537 14.2998 55.0219 14.2998Z" fill="#595354"/>
<path d="M55.6441 43.5205H51.9139C51.3989 43.5205 50.9812 43.1029 50.9812 42.5878C50.9812 42.0733 51.3989 41.6553 51.9139 41.6553H55.6441C56.159 41.6553 56.5767 42.0733 56.5767 42.5878C56.5767 43.1029 56.159 43.5205 55.6441 43.5205Z" fill="#595354"/>
</svg>
