<svg width="60" height="61" viewBox="0 0 60 61" fill="none" xmlns="http://www.w3.org/2000/svg">
<path d="M12.4461 54.9363H6.06316C3.24342 54.9363 0.956787 57.2226 0.956787 60.043H17.5525C17.5525 57.2226 15.2662 54.9363 12.4461 54.9363Z" fill="#595354"/>
<path d="M2.02709 59.085H16.4831C16.0502 57.2568 14.4048 55.8936 12.4464 55.8936H6.06343C4.10539 55.8936 2.45985 57.2568 2.02709 59.085ZM17.5528 61H0.957055C0.428801 61 0 60.5709 0 60.0429C0 56.6992 2.72016 53.9787 6.06343 53.9787H12.4464C15.79 53.9787 18.5102 56.6992 18.5102 60.0429C18.5102 60.5709 18.0814 61 17.5528 61Z" fill="#595354"/>
<path d="M57.7651 61C57.2367 61 56.8079 60.5709 56.8079 60.0429V57.4891C56.8079 56.9609 57.2367 56.5317 57.7651 56.5317C58.2937 56.5317 58.7225 56.9609 58.7225 57.4891V60.0429C58.7225 60.5709 58.2937 61 57.7651 61Z" fill="#000003"/>
<path d="M39.8937 61C39.3651 61 38.9363 60.5709 38.9363 60.0429V57.4891C38.9363 56.9609 39.3651 56.5317 39.8937 56.5317C40.4221 56.5317 40.8509 56.9609 40.8509 57.4891V60.0429C40.8509 60.5709 40.4221 61 39.8937 61Z" fill="#000003"/>
<path d="M38.6165 47.2764H59.0418V37.0637H38.6165V47.2764Z" fill="white"/>
<path d="M39.5747 46.3184H58.085V38.0207H39.5747V46.3184ZM59.0426 48.2334H38.6172C38.0885 48.2334 37.6597 47.8046 37.6597 47.276V37.0633C37.6597 36.5345 38.0885 36.1058 38.6172 36.1058H59.0426C59.5712 36.1058 60 36.5345 60 37.0633V47.276C60 47.8046 59.5712 48.2334 59.0426 48.2334Z" fill="#57565C"/>
<path d="M50.7441 43.1279H46.9141C46.3858 43.1279 45.957 42.6988 45.957 42.1704C45.957 41.6418 46.3858 41.213 46.9141 41.213H50.7441C51.2725 41.213 51.7017 41.6418 51.7017 42.1704C51.7017 42.6988 51.2725 43.1279 50.7441 43.1279Z" fill="#595354"/>
<path d="M38.6165 37.0635H59.0418V26.8507H38.6165V37.0635Z" fill="white"/>
<path d="M39.5747 36.1065H58.085V27.8085H39.5747V36.1065ZM59.0426 38.0215H38.6172C38.0885 38.0215 37.6597 37.5923 37.6597 37.064V26.8513C37.6597 26.3227 38.0885 25.8939 38.6172 25.8939H59.0426C59.5712 25.8939 60 26.3227 60 26.8513V37.064C60 37.5923 59.5712 38.0215 59.0426 38.0215Z" fill="#57565C"/>
<path d="M50.7441 32.915H46.9141C46.3858 32.915 45.957 32.4858 45.957 31.9576C45.957 31.4288 46.3858 31.0001 46.9141 31.0001H50.7441C51.2725 31.0001 51.7017 31.4288 51.7017 31.9576C51.7017 32.4858 51.2725 32.915 50.7441 32.915Z" fill="#595354"/>
<path d="M38.6165 57.4893H59.0418V47.2767H38.6165V57.4893Z" fill="white"/>
<path d="M39.5747 56.5312H58.085V48.2335H39.5747V56.5312ZM59.0426 58.4463H38.6172C38.0885 58.4463 37.6597 58.0175 37.6597 57.4887V47.2761C37.6597 46.7477 38.0885 46.3185 38.6172 46.3185H59.0426C59.5712 46.3185 60 46.7477 60 47.2761V57.4887C60 58.0175 59.5712 58.4463 59.0426 58.4463Z" fill="#57565C"/>
<path d="M50.7441 53.3398H46.9141C46.3858 53.3398 45.957 52.911 45.957 52.3824C45.957 51.854 46.3858 51.4248 46.9141 51.4248H50.7441C51.2725 51.4248 51.7017 51.854 51.7017 52.3824C51.7017 52.911 51.2725 53.3398 50.7441 53.3398Z" fill="#595354"/>
<path d="M57.766 7.70215H27.128C26.4219 7.70215 25.8513 7.13049 25.8513 6.42556V2.59585C25.8513 1.88977 26.4219 1.31918 27.128 1.31918H57.766C58.472 1.31918 59.0427 1.88977 59.0427 2.59585V6.42556C59.0427 7.13049 58.472 7.70215 57.766 7.70215Z" fill="white"/>
<path d="M27.1277 2.27614C26.9514 2.27614 26.8086 2.41907 26.8086 2.59536V6.42506C26.8086 6.60123 26.9514 6.74421 27.1277 6.74421H57.7657C57.9419 6.74421 58.0848 6.60123 58.0848 6.42506V2.59536C58.0848 2.41907 57.9419 2.27614 57.7657 2.27614H27.1277ZM57.7657 8.65918H27.1277C25.8955 8.65918 24.8936 7.65685 24.8936 6.42506V2.59536C24.8936 1.36345 25.8955 0.361092 27.1277 0.361092H57.7657C58.9979 0.361092 59.9999 1.36345 59.9999 2.59536V6.42506C59.9999 7.65685 58.9979 8.65918 57.7657 8.65918Z" fill="#595354"/>
<path d="M52.6586 13.7656H51.3822C50.8536 13.7656 50.4248 13.3368 50.4248 12.8082C50.4248 12.2798 50.8536 11.8506 51.3822 11.8506H52.6586C52.8349 11.8506 52.9777 11.7077 52.9777 11.5314V6.42522C52.9777 5.89683 53.4069 5.46762 53.9353 5.46762C54.464 5.46762 54.8928 5.89683 54.8928 6.42522V11.5314C54.8928 12.7636 53.8908 13.7656 52.6586 13.7656Z" fill="#595354"/>
<path d="M44.9993 13.7656H43.7226C43.1939 13.7656 42.7651 13.3368 42.7651 12.8082C42.7651 12.2798 43.1939 11.8506 43.7226 11.8506H44.9993C45.1756 11.8506 45.3184 11.7077 45.3184 11.5314V6.42522C45.3184 5.89683 45.7472 5.46762 46.2756 5.46762C46.8043 5.46762 47.2331 5.89683 47.2331 6.42522V11.5314C47.2331 12.7636 46.2311 13.7656 44.9993 13.7656Z" fill="#595354"/>
<path d="M37.3396 13.7656H36.063C35.5347 13.7656 35.1055 13.3368 35.1055 12.8082C35.1055 12.2798 35.5347 11.8506 36.063 11.8506H37.3396C37.5159 11.8506 37.6588 11.7077 37.6588 11.5314V6.42522C37.6588 5.89683 38.0876 5.46762 38.6164 5.46762C39.1446 5.46762 39.5738 5.89683 39.5738 6.42522V11.5314C39.5738 12.7636 38.5714 13.7656 37.3396 13.7656Z" fill="#595354"/>
<path d="M29.6806 13.7656H28.4042C27.8756 13.7656 27.4468 13.3368 27.4468 12.8082C27.4468 12.2798 27.8756 11.8506 28.4042 11.8506H29.6806C29.8569 11.8506 29.9997 11.7077 29.9997 11.5314V6.42522C29.9997 5.89683 30.4289 5.46762 30.9573 5.46762C31.4859 5.46762 31.9147 5.89683 31.9147 6.42522V11.5314C31.9147 12.7636 30.9127 13.7656 29.6806 13.7656Z" fill="#595354"/>
<path d="M26.489 46H30.3188L31.5954 38.3407H25.2124L26.489 46Z" fill="#F65D77"/>
<path d="M27.2999 45.042H29.5084L30.4658 39.2973H26.3424L27.2999 45.042ZM30.319 46.957H26.4892C26.0207 46.957 25.6212 46.6186 25.5444 46.1566L24.2681 38.4972C24.2233 38.22 24.3 37.9352 24.4824 37.721C24.6637 37.5064 24.9304 37.3827 25.2127 37.3827H31.5956C31.8779 37.3827 32.1445 37.5064 32.3258 37.721C32.5082 37.9352 32.585 38.22 32.5404 38.4972L31.2638 46.1566C31.1871 46.6186 30.7875 46.957 30.319 46.957Z" fill="#57565C"/>
<path d="M24.5738 60.043H32.2334L33.5101 45.9999H23.2971L24.5738 60.043Z" fill="white"/>
<path d="M25.45 59.085H31.3584L32.4624 46.9574H24.346L25.45 59.085ZM32.234 61H24.5744C24.079 61 23.6653 60.6222 23.6208 60.1294L22.3442 46.0868C22.3199 45.8185 22.4107 45.5533 22.5906 45.3539C22.7719 45.156 23.0285 45.0424 23.2977 45.0424H33.5107C33.7799 45.0424 34.0365 45.156 34.2178 45.3539C34.3977 45.5533 34.4884 45.8185 34.4642 46.0868L33.1876 60.1294C33.143 60.6222 32.7294 61 32.234 61Z" fill="#57565C"/>
<path d="M28.4041 39.2979C27.8755 39.2979 27.4467 38.869 27.4467 38.3406V31.9577C27.4467 31.078 26.7305 30.3619 25.8508 30.3619C24.9711 30.3619 24.255 31.078 24.255 31.9577C24.255 32.4859 23.8262 32.9151 23.2975 32.9151C22.7691 32.9151 22.3403 32.4859 22.3403 31.9577C22.3403 30.0224 23.9141 28.4468 25.8508 28.4468C27.7876 28.4468 29.3613 30.0224 29.3613 31.9577V38.3406C29.3613 38.869 28.9325 39.2979 28.4041 39.2979Z" fill="#57565C"/>
<path d="M6.62286 6.10645H4.14882C2.2121 6.10645 0.637939 4.53124 0.637939 2.59605V1.31938C0.637939 0.790996 1.06714 0.361778 1.59552 0.361778C2.12416 0.361778 2.55297 0.790996 2.55297 1.31938V2.59605C2.55297 3.47537 3.26912 4.19179 4.14882 4.19179H6.62286C7.15125 4.19179 7.58006 4.62062 7.58006 5.149C7.58006 5.67764 7.15125 6.10645 6.62286 6.10645Z" fill="#595354"/>
<path d="M6.62286 15.042H4.14882C2.2121 15.042 0.637939 13.4664 0.637939 11.5311V10.2549C0.637939 9.72616 1.06714 9.29732 1.59552 9.29732C2.12416 9.29732 2.55297 9.72616 2.55297 10.2549V11.5311C2.55297 12.4108 3.26912 13.127 4.14882 13.127H6.62286C7.15125 13.127 7.58006 13.5558 7.58006 14.0845C7.58006 14.6128 7.15125 15.042 6.62286 15.042Z" fill="#595354"/>
<path d="M6.62286 23.9785H4.14882C2.2121 23.9785 0.637939 22.4033 0.637939 20.468V19.1913C0.637939 18.6627 1.06714 18.2338 1.59552 18.2338C2.12416 18.2338 2.55297 18.6627 2.55297 19.1913V20.468C2.55297 21.3473 3.26912 22.0635 4.14882 22.0635H6.62286C7.15125 22.0635 7.58006 22.4927 7.58006 23.0209C7.58006 23.5497 7.15125 23.9785 6.62286 23.9785Z" fill="#595354"/>
<path d="M14.2821 6.10645H11.808C11.2796 6.10645 10.8508 5.67764 10.8508 5.149C10.8508 4.62062 11.2796 4.19179 11.808 4.19179H14.2821C15.1618 4.19179 15.8779 3.47537 15.8779 2.59605V1.31938C15.8779 0.790996 16.3057 0.361778 16.8355 0.361778C17.3638 0.361778 17.7929 0.790996 17.7929 1.31938V2.59605C17.7929 4.53124 16.2174 6.10645 14.2821 6.10645Z" fill="#595354"/>
<path d="M14.2821 15.042H11.808C11.2796 15.042 10.8508 14.6128 10.8508 14.0845C10.8508 13.5558 11.2796 13.127 11.808 13.127H14.2821C15.1618 13.127 15.8779 12.4108 15.8779 11.5311V10.2549C15.8779 9.72616 16.3057 9.29732 16.8355 9.29732C17.3638 9.29732 17.7929 9.72616 17.7929 10.2549V11.5311C17.7929 13.4664 16.2174 15.042 14.2821 15.042Z" fill="#595354"/>
<path d="M14.2821 23.9785H11.808C11.2796 23.9785 10.8508 23.5497 10.8508 23.0209C10.8508 22.4927 11.2796 22.0635 11.808 22.0635H14.2821C15.1618 22.0635 15.8779 21.3473 15.8779 20.468V19.1913C15.8779 18.6627 16.3057 18.2338 16.8355 18.2338C17.3638 18.2338 17.7929 18.6627 17.7929 19.1913V20.468C17.7929 22.4033 16.2174 23.9785 14.2821 23.9785Z" fill="#595354"/>
<path d="M9.25523 1.31857C7.84587 1.31857 6.7019 2.46234 6.7019 3.87183V54.9355H11.8083V3.87183C11.8083 2.46234 10.6647 1.31857 9.25523 1.31857Z" fill="white"/>
<path d="M7.65878 53.9786H10.8504V3.8724C10.8504 2.9927 10.1342 2.27658 9.25452 2.27658C8.37482 2.27658 7.65878 2.9927 7.65878 3.8724V53.9786ZM11.8076 55.8936H6.7012C6.17294 55.8936 5.74414 55.4644 5.74414 54.9361V3.8724C5.74414 1.93721 7.3178 0.361533 9.25452 0.361533C11.1912 0.361533 12.765 1.93721 12.765 3.8724V54.9361C12.765 55.4644 12.3362 55.8936 11.8076 55.8936Z" fill="#595354"/>
</svg>
