<svg width="148" height="148" viewBox="0 0 148 148" fill="none" xmlns="http://www.w3.org/2000/svg">
<path d="M115.297 26.9844H31.8906C29.181 26.9844 26.9844 29.181 26.9844 31.8906V139.828C26.9844 142.538 29.181 144.734 31.8906 144.734H115.297C118.007 144.734 120.203 142.538 120.203 139.828V31.8906C120.203 29.181 118.007 26.9844 115.297 26.9844Z" fill="white"/>
<path d="M105.484 34.3432C105.489 39.188 104.386 43.9697 102.26 48.3233C100.134 52.6768 97.0417 56.4871 93.2188 59.4632C92.3674 60.1287 91.4832 60.7509 90.5694 61.3276C85.4875 64.5327 79.602 66.2337 73.5938 66.2337C67.5855 66.2337 61.7001 64.5327 56.6181 61.3276C55.7043 60.7509 54.8201 60.1287 53.9688 59.4632C49.704 56.1337 46.3565 51.7738 44.2413 46.7939C42.126 41.814 41.3125 36.3778 41.8774 30.9968C42.4423 25.6158 44.3669 20.4671 47.4701 16.035C50.5734 11.6029 54.7533 8.03317 59.6165 5.66179C64.4796 3.29042 69.8662 2.19534 75.2692 2.4796C80.6723 2.76386 85.9142 4.41811 90.5017 7.28669C95.0892 10.1553 98.8714 14.1439 101.492 18.8771C104.114 23.6104 105.487 28.9327 105.484 34.3432Z" fill="white"/>
<path d="M144.734 41.7031V130.016C144.73 131.316 144.212 132.561 143.293 133.481C142.374 134.4 141.128 134.918 139.828 134.922H120.203V36.7969H139.828C141.128 36.8008 142.374 37.3189 143.293 38.2382C144.212 39.1574 144.73 40.4031 144.734 41.7031Z" fill="white"/>
<path d="M2.45312 130.016V41.7031C2.45701 40.4031 2.97516 39.1574 3.89442 38.2382C4.81368 37.3189 6.05935 36.8008 7.35938 36.7969H26.9844V134.922H7.35938C6.05935 134.918 4.81368 134.4 3.89442 133.481C2.97516 132.561 2.45701 131.316 2.45312 130.016Z" fill="white"/>
<path d="M77.1508 24.2614L76.0469 22.0781L75.4581 22.6669C74.0903 24.0377 72.4651 25.1248 70.676 25.8658C68.8868 26.6067 66.9689 26.9868 65.0323 26.9844H63.7812V22.0781C63.7812 19.4757 64.8151 16.9798 66.6553 15.1396C68.4955 13.2994 70.9913 12.2656 73.5938 12.2656C76.1962 12.2656 78.692 13.2994 80.5322 15.1396C82.3724 16.9798 83.4062 19.4757 83.4062 22.0781V26.9844H81.5419C80.6284 26.987 79.7326 26.7332 78.9563 26.2518C78.18 25.7704 77.5545 25.0808 77.1508 24.2614Z" fill="#595354"/>
<path d="M78.5 44.1567L73.5938 49.063L68.6875 44.1567V37.9258C70.1771 38.7933 71.87 39.2504 73.5938 39.2504C75.3175 39.2504 77.0104 38.7933 78.5 37.9258V44.1567Z" fill="#FFC477"/>
<path d="M68.6875 44.1562L73.5937 49.0625L66.2344 53.9688L63.0698 46.9528L68.6875 44.1562Z" fill="white"/>
<path d="M81.5419 26.9844C80.6284 26.987 79.7326 26.7332 78.9563 26.2518C78.18 25.7704 77.5545 25.0808 77.1508 24.2614L76.0469 22.0781L75.4581 22.6669C74.0903 24.0377 72.4651 25.1248 70.676 25.8658C68.8868 26.6067 66.9689 26.9868 65.0323 26.9844H63.7812V29.4375C63.7812 32.0399 64.8151 34.5358 66.6553 36.376C68.4955 38.2162 70.9913 39.25 73.5938 39.25C76.1962 39.25 78.692 38.2162 80.5322 36.376C82.3724 34.5358 83.4062 32.0399 83.4062 29.4375V26.9844H81.5419Z" fill="#FFC477"/>
<path d="M84.1177 46.9528L80.9531 53.9688L73.5938 49.0625L78.5 44.1562L84.1177 46.9528Z" fill="white"/>
<path d="M87.7973 48.793L84.1177 46.9531L80.9531 53.9691L73.5938 49.0628L66.2344 53.9691L63.0698 46.9531L59.3902 48.793C57.7635 49.6132 56.3958 50.868 55.4389 52.4182C54.4819 53.9684 53.973 55.7534 53.9688 57.5752V59.4641C54.8201 60.1295 55.7043 60.7517 56.6181 61.3284C61.7 64.5336 67.5855 66.2345 73.5938 66.2345C79.602 66.2345 85.4874 64.5336 90.5694 61.3284C91.4832 60.7517 92.3674 60.1295 93.2188 59.4641V57.5752C93.2145 55.7534 92.7056 53.9684 91.7486 52.4182C90.7917 50.868 89.424 49.6132 87.7973 48.793Z" fill="white"/>
<path d="M59.5619 114.61C60.8134 116.414 61.4237 118.586 61.2952 120.777C61.1667 122.969 60.3068 125.055 58.8531 126.7C57.3993 128.345 55.4358 129.456 53.2765 129.853C51.1172 130.251 48.8869 129.913 46.9425 128.893C44.998 127.874 43.4517 126.231 42.5509 124.229C41.6501 122.227 41.4469 119.98 41.9737 117.849C42.5005 115.717 43.7269 113.824 45.4568 112.472C47.1867 111.12 49.3201 110.387 51.5157 110.391C53.0973 110.395 54.6545 110.781 56.0552 111.515C57.4559 112.25 58.6589 113.312 59.5619 114.61Z" fill="#F65D77"/>
<path d="M59.5619 85.1725C60.8134 86.9765 61.4237 89.1481 61.2952 91.34C61.1667 93.5318 60.3068 95.6172 58.8531 97.2626C57.3993 98.908 55.4358 100.018 53.2765 100.416C51.1172 100.814 48.8869 100.475 46.9425 99.4558C44.998 98.4361 43.4517 96.7938 42.5509 94.7915C41.6501 92.7892 41.4469 90.5426 41.9737 88.4112C42.5005 86.2797 43.7269 84.3865 45.4568 83.0345C47.1867 81.6824 49.3201 80.9495 51.5157 80.9531C53.0973 80.9576 54.6545 81.3435 56.0552 82.078C57.4559 82.8125 58.6589 83.874 59.5619 85.1725Z" fill="#F65D77"/>
<path d="M73.5938 0C66.8012 0 60.1612 2.01423 54.5134 5.78797C48.8656 9.56171 44.4637 14.9255 41.8643 21.201C39.2649 27.4765 38.5848 34.3818 39.9099 41.0439C41.2351 47.7059 44.506 53.8254 49.3091 58.6284C54.1121 63.4315 60.2316 66.7024 66.8936 68.0276C73.5557 69.3528 80.461 68.6726 86.7365 66.0732C93.012 63.4738 98.3758 59.0719 102.15 53.4241C105.923 47.7763 107.938 41.1363 107.938 34.3438C107.928 25.2382 104.306 16.5084 97.8677 10.0698C91.4291 3.63122 82.6993 0.00974029 73.5938 0ZM90.7656 58.2127C85.7716 61.8322 79.7616 63.7812 73.5938 63.7812C67.426 63.7812 61.4159 61.8322 56.4219 58.2127V57.5748C56.4314 56.2075 56.8162 54.869 57.5343 53.7054C58.2524 52.5417 59.2762 51.5976 60.4941 50.9759L61.8924 50.2891L64.002 54.9745C64.1449 55.299 64.3574 55.5881 64.6245 55.8213C64.8916 56.0545 65.2067 56.226 65.5475 56.3237C65.7699 56.3925 66.0017 56.4256 66.2344 56.4219C66.716 56.4231 67.1866 56.2776 67.5836 56.0048L73.5938 52.0063L79.6039 56.0048C80.0009 56.2776 80.4715 56.4231 80.9531 56.4219C81.1858 56.4256 81.4177 56.3925 81.64 56.3237C81.9808 56.226 82.296 56.0545 82.563 55.8213C82.8301 55.5881 83.0426 55.299 83.1855 54.9745L85.2952 50.2891L86.6934 50.9759C87.9113 51.5976 88.9351 52.5417 89.6532 53.7054C90.3713 54.869 90.7561 56.2075 90.7656 57.5748V58.2127ZM75.311 26.0277C75.9251 26.9861 76.7555 27.7872 77.7354 28.3666C78.7153 28.946 79.8173 29.2876 80.9531 29.3639V29.4375C80.9531 31.3893 80.1778 33.2612 78.7976 34.6414C77.4175 36.0215 75.5456 36.7969 73.5938 36.7969C71.6419 36.7969 69.77 36.0215 68.3899 34.6414C67.0097 33.2612 66.2344 31.3893 66.2344 29.4375V29.3394C69.5168 29.138 72.6701 27.9874 75.311 26.0277ZM66.2344 24.4086V22.0781C66.2344 20.1263 67.0097 18.2544 68.3899 16.8743C69.77 15.4941 71.6419 14.7188 73.5938 14.7188C75.5456 14.7188 77.4175 15.4941 78.7976 16.8743C80.1778 18.2544 80.9531 20.1263 80.9531 22.0781V24.4577C80.6061 24.3771 80.2811 24.221 80.0012 24.0005C79.7214 23.7801 79.4936 23.5006 79.3341 23.182L78.2302 20.9742C78.0574 20.6278 77.805 20.3271 77.4938 20.0969C77.1826 19.8667 76.8212 19.7134 76.4394 19.6495C76.0547 19.5884 75.661 19.6187 75.2902 19.738C74.9194 19.8574 74.582 20.0624 74.3052 20.3364L73.7164 20.9497C71.6986 22.9348 69.0539 24.1574 66.2344 24.4086ZM80.9041 48.1058L79.8983 50.3136L77.4452 48.67L78.9906 47.1491L80.9041 48.1058ZM76.0469 41.4578V43.1505L73.5938 45.6036L71.1406 43.1505V41.4578C72.7597 41.7849 74.4278 41.7849 76.0469 41.4578ZM69.7424 48.67L67.2892 50.3136L66.2834 48.1058L68.1969 47.1491L69.7424 48.67ZM95.2058 54.2631C94.738 52.6223 93.9367 51.0956 92.8519 49.7787C91.767 48.4617 90.4221 47.3828 88.9013 46.6094L80.9531 42.6353V39.1764C82.4733 38.0477 83.7086 36.5793 84.5605 34.8884C85.4123 33.1975 85.8571 31.3309 85.8594 29.4375V22.0781C85.8594 18.8251 84.5671 15.7053 82.2669 13.405C79.9666 11.1048 76.8468 9.8125 73.5938 9.8125C70.3407 9.8125 67.2209 11.1048 64.9207 13.405C62.6204 15.7053 61.3281 18.8251 61.3281 22.0781V29.4375C61.3304 31.3309 61.7752 33.1975 62.6271 34.8884C63.4789 36.5793 64.7142 38.0477 66.2344 39.1764V42.6353L58.2863 46.6094C56.7654 47.3828 55.4205 48.4617 54.3357 49.7787C53.2509 51.0956 52.4495 52.6223 51.9817 54.2631C48.0951 50.0605 45.5181 44.8159 44.5661 39.1712C43.6142 33.5266 44.3287 27.7269 46.6221 22.482C48.9155 17.2372 52.6884 12.7748 57.4788 9.64113C62.2693 6.50745 67.8694 4.83847 73.5938 4.83847C79.3181 4.83847 84.9183 6.50745 89.7087 9.64113C94.4991 12.7748 98.272 17.2372 100.565 22.482C102.859 27.7269 103.573 33.5266 102.621 39.1712C101.669 44.8159 99.0924 50.0605 95.2058 54.2631Z" fill="#595354"/>
<path d="M115.297 24.5312H112.844V29.4375H115.297C115.947 29.4375 116.571 29.696 117.032 30.156C117.492 30.6161 117.75 31.24 117.75 31.8906V139.828C117.75 140.479 117.492 141.103 117.032 141.563C116.571 142.023 115.947 142.281 115.297 142.281H31.8906C31.24 142.281 30.6161 142.023 30.156 141.563C29.696 141.103 29.4375 140.479 29.4375 139.828V31.8906C29.4375 31.24 29.696 30.6161 30.156 30.156C30.6161 29.696 31.24 29.4375 31.8906 29.4375H34.3438V24.5312H31.8906C29.9388 24.5312 28.0669 25.3066 26.6868 26.6868C25.3066 28.0669 24.5312 29.9388 24.5312 31.8906V139.828C24.5312 141.78 25.3066 143.652 26.6868 145.032C28.0669 146.412 29.9388 147.188 31.8906 147.188H115.297C117.249 147.188 119.121 146.412 120.501 145.032C121.881 143.652 122.656 141.78 122.656 139.828V31.8906C122.656 29.9388 121.881 28.0669 120.501 26.6868C119.121 25.3066 117.249 24.5312 115.297 24.5312Z" fill="#57565C"/>
<path d="M139.828 34.3438H127.562V39.25H139.828C140.479 39.25 141.103 39.5085 141.563 39.9685C142.023 40.4286 142.281 41.0525 142.281 41.7031V130.016C142.281 130.666 142.023 131.29 141.563 131.75C141.103 132.21 140.479 132.469 139.828 132.469H127.562V137.375H139.828C141.78 137.375 143.652 136.6 145.032 135.219C146.412 133.839 147.188 131.967 147.188 130.016V41.7031C147.188 39.7513 146.412 37.8794 145.032 36.4993C143.652 35.1191 141.78 34.3438 139.828 34.3438Z" fill="#57565C"/>
<path d="M0 41.7031V130.016C0 131.967 0.775361 133.839 2.15551 135.219C3.53566 136.6 5.40755 137.375 7.35938 137.375H19.625V132.469H7.35938C6.70877 132.469 6.0848 132.21 5.62475 131.75C5.1647 131.29 4.90625 130.666 4.90625 130.016V41.7031C4.90625 41.0525 5.1647 40.4286 5.62475 39.9685C6.0848 39.5085 6.70877 39.25 7.35938 39.25H19.625V34.3438H7.35938C5.40755 34.3438 3.53566 35.1191 2.15551 36.4993C0.775361 37.8794 0 39.7513 0 41.7031Z" fill="#57565C"/>
<path d="M9.8125 53.9688H19.625V58.875H9.8125V53.9688Z" fill="#57565C"/>
<path d="M9.8125 63.7812H19.625V68.6875H9.8125V63.7812Z" fill="#57565C"/>
<path d="M9.8125 73.5938H19.625V78.5H9.8125V73.5938Z" fill="#57565C"/>
<path d="M9.8125 83.4062H19.625V88.3125H9.8125V83.4062Z" fill="#57565C"/>
<path d="M9.8125 93.2188H19.625V98.125H9.8125V93.2188Z" fill="#57565C"/>
<path d="M9.8125 103.031H19.625V107.938H9.8125V103.031Z" fill="#57565C"/>
<path d="M9.8125 112.844H19.625V117.75H9.8125V112.844Z" fill="#57565C"/>
<path d="M127.562 53.9688H137.375V58.875H127.562V53.9688Z" fill="#57565C"/>
<path d="M127.562 63.7812H137.375V68.6875H127.562V63.7812Z" fill="#57565C"/>
<path d="M127.562 73.5938H137.375V78.5H127.562V73.5938Z" fill="#57565C"/>
<path d="M127.562 83.4062H137.375V88.3125H127.562V83.4062Z" fill="#57565C"/>
<path d="M127.562 93.2188H137.375V98.125H127.562V93.2188Z" fill="#57565C"/>
<path d="M127.562 103.031H137.375V107.938H127.562V103.031Z" fill="#57565C"/>
<path d="M127.562 112.844H137.375V117.75H127.562V112.844Z" fill="#57565C"/>
<path d="M51.5157 103.031C54.7675 103.027 57.8851 101.734 60.1845 99.4342C62.4839 97.1348 63.7774 94.0172 63.7813 90.7654C63.7718 88.9823 63.3689 87.2233 62.6013 85.6138L65.5157 82.6995L62.0469 79.2308L59.6281 81.6495C58.1463 80.3282 56.3654 79.3869 54.4389 78.907C52.5124 78.4271 50.4981 78.4229 48.5695 78.8948C46.641 79.3666 44.8562 80.3004 43.3689 81.6156C41.8816 82.9308 40.7364 84.5879 40.0321 86.4442C39.3278 88.3005 39.0855 90.3002 39.326 92.271C39.5666 94.2417 40.2828 96.1245 41.413 97.7568C42.5431 99.3892 44.0532 100.722 45.8132 101.641C47.5732 102.56 49.5303 103.037 51.5157 103.031ZM51.5157 83.406C53.2149 83.4131 54.8583 84.0135 56.1619 85.1036L49.7838 91.4817L53.2525 94.9504L58.745 89.4578C59.0137 90.9459 58.8174 92.4806 58.183 93.8532C57.5485 95.2258 56.5067 96.3696 55.1991 97.1291C53.8916 97.8886 52.3818 98.2269 50.8752 98.0979C49.3686 97.969 47.9382 97.3791 46.7788 96.4084C45.6193 95.4378 44.7869 94.1336 44.3949 92.6732C44.0029 91.2127 44.0703 89.667 44.5879 88.2462C45.1055 86.8255 46.0482 85.5986 47.2878 84.7326C48.5273 83.8665 50.0036 83.4033 51.5157 83.406Z" fill="#57565C"/>
<path d="M85.8594 83.4062H105.484V88.3125H85.8594V83.4062Z" fill="#57565C"/>
<path d="M76.0469 93.2188H105.484V98.125H76.0469V93.2188Z" fill="#57565C"/>
<path d="M51.5157 132.468C54.7675 132.465 57.8851 131.171 60.1845 128.872C62.4839 126.572 63.7774 123.455 63.7813 120.203C63.7718 118.42 63.3689 116.661 62.6013 115.051L65.5157 112.137L62.0469 108.668L59.6281 111.087C58.1463 109.766 56.3654 108.824 54.4389 108.345C52.5124 107.865 50.4981 107.86 48.5695 108.332C46.641 108.804 44.8562 109.738 43.3689 111.053C41.8816 112.368 40.7364 114.025 40.0321 115.882C39.3278 117.738 39.0855 119.738 39.326 121.708C39.5666 123.679 40.2828 125.562 41.413 127.194C42.5431 128.827 44.0532 130.16 45.8132 131.079C47.5732 131.997 49.5303 132.474 51.5157 132.468ZM51.5157 112.843C53.2149 112.851 54.8583 113.451 56.1619 114.541L49.7838 120.919L53.2525 124.388L58.745 118.895C59.0137 120.383 58.8174 121.918 58.183 123.291C57.5485 124.663 56.5067 125.807 55.1991 126.567C53.8916 127.326 52.3818 127.664 50.8752 127.535C49.3686 127.406 47.9382 126.817 46.7788 125.846C45.6193 124.875 44.7869 123.571 44.3949 122.111C44.0029 120.65 44.0703 119.105 44.5879 117.684C45.1055 116.263 46.0482 115.036 47.2878 114.17C48.5273 113.304 50.0036 112.841 51.5157 112.843Z" fill="#57565C"/>
<path d="M76.0469 112.844H105.484V117.75H76.0469V112.844Z" fill="#57565C"/>
<path d="M76.0469 122.656H105.484V127.562H76.0469V122.656Z" fill="#57565C"/>
<path d="M76.0469 83.4062H80.9531V88.3125H76.0469V83.4062Z" fill="#57565C"/>
</svg>
