<svg width="150" height="149" viewBox="0 0 150 149" fill="none" xmlns="http://www.w3.org/2000/svg">
<path d="M24.912 135.439C18.4929 135.439 13.2723 130.216 13.2723 123.799C13.2723 117.384 18.4929 112.161 24.912 112.161C31.3287 112.161 36.5518 117.384 36.5518 123.799C36.5518 130.216 31.3287 135.439 24.912 135.439ZM24.912 108.081C16.2434 108.081 9.18994 115.133 9.18994 123.799C9.18994 132.467 16.2434 139.519 24.912 139.519C33.5806 139.519 40.6316 132.467 40.6316 123.799C40.6316 115.133 33.5806 108.081 24.912 108.081Z" fill="#595354"/>
<path d="M100.351 138.582C101.083 137.213 102.527 136.28 104.183 136.28H141.58C143.234 136.28 144.677 137.213 145.407 138.582H100.351ZM113.329 130.009H132.43L135.233 132.2H110.526L113.329 130.009ZM118.902 119.928H126.858V125.927H118.902V119.928ZM95.9457 8.02514C82.1812 8.02514 70.982 19.2245 70.982 32.9895V76.0253H67.0412V32.9895C67.0412 17.0493 80.0078 4.0802 95.9457 4.0802C111.884 4.0802 124.848 17.0493 124.848 32.9895V115.846H120.908V32.9895C120.908 19.2245 109.708 8.02514 95.9457 8.02514ZM83.6502 113.141C83.6502 126.409 72.8586 137.2 59.5931 137.2H45.8916C45.926 137.145 45.9546 137.091 45.9898 137.037C46.0854 136.882 46.1728 136.725 46.2661 136.568C46.5366 136.121 46.7917 135.668 47.0312 135.203C47.1359 135.003 47.2364 134.8 47.3368 134.598C47.5609 134.133 47.7678 133.66 47.9646 133.185C48.0341 133.013 48.1102 132.843 48.1779 132.668C48.424 132.026 48.6487 131.372 48.8408 130.709C48.8752 130.589 48.8997 130.47 48.9323 130.349C49.0821 129.798 49.2153 129.242 49.3288 128.682C49.3723 128.462 49.409 128.244 49.4466 128.024C49.5334 127.529 49.6012 127.032 49.6582 126.531C49.6796 126.321 49.7081 126.112 49.7254 125.903C49.7842 125.205 49.8234 124.506 49.8234 123.8C49.8234 110.063 38.6485 98.8858 24.912 98.8858C24.147 98.8858 23.3901 98.9315 22.6389 98.9993C22.4094 99.0189 22.1829 99.0491 21.9562 99.0777C21.4202 99.1408 20.8863 99.2192 20.3584 99.3173C20.1188 99.3607 19.881 99.4046 19.6456 99.4546C19.0571 99.5807 18.4775 99.7293 17.902 99.8968C17.7605 99.9385 17.6167 99.9713 17.4746 100.015C16.7683 100.235 16.0752 100.49 15.3934 100.773C15.212 100.847 15.0378 100.934 14.8595 101.013C14.3512 101.237 13.85 101.478 13.3572 101.737C13.1438 101.85 12.9322 101.966 12.7205 102.083C12.2348 102.358 11.7599 102.652 11.2908 102.96C11.1274 103.066 10.9597 103.169 10.7986 103.278C10.7332 103.326 10.6631 103.365 10.5977 103.411V89.0858H59.5931C60.3754 89.0858 61.1535 89.1447 61.7379 89.1922C62.9453 89.3017 64.1312 89.4954 65.2929 89.7766C68.7742 90.6178 72.0152 92.2271 74.8116 94.5175C74.8139 94.5175 74.8139 94.5175 74.8139 94.5175C80.4287 99.1122 83.6502 105.9 83.6502 113.141H83.6502ZM4.08049 123.8C4.08049 118.339 6.18853 113.173 10.0157 109.252C13.9785 105.2 19.2663 102.968 24.912 102.968C36.3991 102.968 45.743 112.313 45.743 123.8C45.743 129.005 43.7901 133.998 40.2483 137.861C36.3033 142.163 30.7117 144.631 24.912 144.631C13.4249 144.631 4.08049 135.287 4.08049 123.8ZM74.0637 80.105V89.0097C74.0464 88.9984 74.0287 88.992 74.0114 88.9812C73.3164 88.5668 72.6012 88.1876 71.8756 87.8344C71.6572 87.7281 71.4355 87.6365 71.215 87.536C70.683 87.2965 70.1449 87.0694 69.5998 86.8625C69.3406 86.7643 69.0832 86.6687 68.8216 86.579C68.2527 86.3811 67.6773 86.2062 67.0935 86.0452C66.8794 85.9887 66.6702 85.9209 66.4545 85.8668C65.6679 85.67 64.872 85.5048 64.0676 85.3763C64.0307 85.3715 63.9957 85.3608 63.9589 85.3544V80.105H74.0637ZM141.878 132.215L134.389 126.361C134.029 126.079 133.589 125.927 133.134 125.927H130.938V117.888C130.938 116.77 130.042 115.867 128.931 115.85V32.9895C128.931 14.7974 114.133 -0.000173237 95.9457 -0.000173237C77.7561 -0.000173237 62.9583 14.7974 62.9583 32.9895V76.0253H61.9185C60.7915 76.0253 59.8784 76.9383 59.8784 78.0655V85.0078C59.7827 85.0078 59.6911 85.0036 59.5931 85.0036H8.55804C7.43096 85.0036 6.51786 85.9167 6.51786 87.0457V107.055C2.32147 111.659 0 117.561 0 123.8C0 137.536 11.1755 148.711 24.912 148.711C31.538 148.711 37.9114 146 42.5827 141.281H59.5931C75.1082 141.281 87.7324 128.658 87.7324 113.141C87.7324 105 84.2453 97.3555 78.1465 92.0047V78.0655C78.1465 76.9383 77.231 76.0253 76.104 76.0253H75.0642V32.9895C75.0642 21.4739 84.4325 12.1057 95.9457 12.1057C107.459 12.1057 116.825 21.4739 116.825 32.9895V115.85C115.715 115.87 114.822 116.772 114.822 117.888V125.927H112.627C112.171 125.927 111.729 126.079 111.369 126.361L103.878 132.215C99.3746 132.379 95.7602 136.08 95.7602 140.623C95.7602 141.749 96.674 142.663 97.8004 142.663H147.957C149.086 142.663 150 141.749 150 140.623C150 136.08 146.381 132.374 141.878 132.215Z" fill="#595354"/>
<path fill-rule="evenodd" clip-rule="evenodd" d="M45.7442 123.796C45.7442 112.31 36.4021 102.968 24.9097 102.968C19.2687 102.968 13.9798 105.199 10.013 109.252C6.18844 113.175 4.08154 118.341 4.08154 123.796C4.08154 135.289 13.4237 144.631 24.9097 144.631C30.7115 144.631 36.3032 142.166 40.2514 137.859C43.7916 133.997 45.7442 129.005 45.7442 123.796ZM24.9097 108.084C33.5784 108.084 40.6345 115.134 40.6345 123.796C40.6345 132.465 33.5784 139.521 24.9097 139.521C16.2411 139.521 9.19122 132.465 9.19122 123.796C9.19122 115.134 16.2411 108.084 24.9097 108.084Z" fill="#F65D77" stroke="#1A1A18" stroke-width="0.5669" stroke-miterlimit="22.9256"/>
<path fill-rule="evenodd" clip-rule="evenodd" d="M132.431 130.007H113.326L110.527 132.2H135.236L132.431 130.007Z" fill="#F65D77" stroke="#1A1A18" stroke-width="0.5669" stroke-miterlimit="22.9256"/>
<path fill-rule="evenodd" clip-rule="evenodd" d="M141.581 136.277H104.182C102.526 136.277 101.08 137.21 100.351 138.582H145.406C144.677 137.21 143.237 136.277 141.581 136.277Z" fill="#F65D77" stroke="#1A1A18" stroke-width="0.5669" stroke-miterlimit="22.9256"/>
</svg>
