<svg width="148" height="148" viewBox="0 0 148 148" fill="none" xmlns="http://www.w3.org/2000/svg">
<path d="M113.893 145.109H8.67383C5.48084 145.109 2.89258 142.521 2.89258 139.328V8.67188C2.89258 5.47889 5.48084 2.89062 8.67383 2.89062H113.893C117.086 2.89062 119.674 5.47889 119.674 8.67188V139.328C119.674 142.521 117.086 145.109 113.893 145.109Z" fill="white"/>
<path d="M61.2842 65.9062C74.3751 65.9062 84.9873 55.294 84.9873 42.2031C84.9873 29.1123 74.3751 18.5 61.2842 18.5C48.1933 18.5 37.5811 29.1123 37.5811 42.2031C37.5811 55.294 48.1933 65.9062 61.2842 65.9062Z" fill="#F65D77"/>
<path d="M68.7988 39.168V41.0469C68.7988 45.1975 65.4338 48.5625 61.2832 48.5625C57.1326 48.5625 53.7676 45.1975 53.7676 41.0469V39.168C53.7676 35.0173 57.1326 31.6523 61.2832 31.6523C65.4338 31.6523 68.7988 35.0173 68.7988 39.168Z" fill="white"/>
<path d="M61.2835 48.5625C53.9471 48.5625 47.679 53.1201 45.1445 59.5564C49.3764 63.494 55.0469 65.9062 61.2835 65.9062C67.52 65.9062 73.1905 63.494 77.4224 59.5564C74.8879 53.1201 68.6199 48.5625 61.2835 48.5625Z" fill="white"/>
<path d="M126.197 46.4209L127.849 43.5601C130.404 39.136 136.06 37.6201 140.485 40.1743C144.909 42.7287 146.425 48.3857 143.871 52.8101L107.495 115.815L91.4731 106.565L107.164 79.3874L126.197 46.4209Z" fill="white"/>
<path d="M140.485 40.1735C136.061 37.6191 130.404 39.1349 127.849 43.5593L123.555 50.9977L139.576 60.2477L143.871 52.8093C146.425 48.3852 144.909 42.728 140.485 40.1735Z" fill="#F65D77"/>
<path d="M107.495 115.814L88.9126 129.5L91.4731 106.564L107.495 115.814Z" fill="white"/>
<path d="M119.675 115.142C118.079 115.142 116.785 116.436 116.785 118.032V139.328C116.785 140.922 115.488 142.219 113.894 142.219H8.67529C7.0814 142.219 5.78467 140.922 5.78467 139.328V8.67188C5.78467 7.07798 7.0814 5.78125 8.67529 5.78125H113.894C115.488 5.78125 116.785 7.07798 116.785 8.67188V40.1074C116.785 41.7039 118.079 42.998 119.675 42.998C121.271 42.998 122.566 41.7039 122.566 40.1074V8.67188C122.566 3.8902 118.676 0 113.894 0H8.67529C3.89362 0 0.00341797 3.8902 0.00341797 8.67188V139.328C0.00341797 144.11 3.89362 148 8.67529 148H113.894C118.676 148 122.566 144.11 122.566 139.328V118.032C122.566 116.436 121.271 115.142 119.675 115.142Z" fill="#595354"/>
<path d="M87.8769 42.2031C87.8769 27.5393 75.947 15.6094 61.2832 15.6094C46.6193 15.6094 34.6895 27.5393 34.6895 42.2031C34.6895 49.8104 37.9009 56.6808 43.0382 61.5324C43.1344 61.6354 43.2367 61.7328 43.3486 61.8215C48.0808 66.1514 54.3787 68.7966 61.2829 68.7966C68.1872 68.7966 74.485 66.1511 79.2172 61.8215C79.3291 61.7328 79.4314 61.6351 79.5277 61.5324C84.6655 56.6808 87.8769 49.8104 87.8769 42.2031ZM61.2832 21.3906C72.7593 21.3906 82.0957 30.7271 82.0957 42.2031C82.0957 46.8186 80.5836 51.086 78.0315 54.5412C75.8996 51.3794 72.9451 48.9204 69.5148 47.4022C70.8763 45.6427 71.6894 43.4386 71.6894 41.0469V39.168C71.6894 33.4298 67.0214 28.7617 61.2832 28.7617C55.545 28.7617 50.8769 33.4298 50.8769 39.168V41.0469C50.8769 43.4386 51.6901 45.6427 53.0516 47.4022C49.6213 48.9204 46.6668 51.3794 44.5349 54.5412C41.9828 51.086 40.4707 46.8186 40.4707 42.2031C40.4707 30.7271 49.8071 21.3906 61.2832 21.3906ZM56.6582 41.0469V39.168C56.6582 36.6179 58.7331 34.543 61.2832 34.543C63.8333 34.543 65.9082 36.6179 65.9082 39.168V41.0469C65.9082 43.597 63.8333 45.6719 61.2832 45.6719C58.7331 45.6719 56.6582 43.597 56.6582 41.0469ZM48.7116 58.7757C51.2522 54.2706 55.9931 51.4531 61.2832 51.4531C66.5733 51.4531 71.3142 54.2706 73.8548 58.7757C70.3592 61.4339 66.0033 63.0156 61.2832 63.0156C56.5631 63.0156 52.2069 61.4339 48.7116 58.7757Z" fill="#595354"/>
<path d="M76.8926 126.609H61.2832C59.687 126.609 58.3926 127.904 58.3926 129.5C58.3926 131.096 59.687 132.391 61.2832 132.391H76.8926C78.4888 132.391 79.7832 131.096 79.7832 129.5C79.7832 127.904 78.4888 126.609 76.8926 126.609Z" fill="#57565C"/>
<path d="M76.8926 110.422H35.8457C34.2495 110.422 32.9551 111.716 32.9551 113.312C32.9551 114.909 34.2495 116.203 35.8457 116.203H76.8926C78.4888 116.203 79.7832 114.909 79.7832 113.312C79.7832 111.716 78.4888 110.422 76.8926 110.422Z" fill="#57565C"/>
<path d="M76.8926 94.2344H35.8457C34.2495 94.2344 32.9551 95.5285 32.9551 97.125C32.9551 98.7215 34.2495 100.016 35.8457 100.016H76.8926C78.4888 100.016 79.7832 98.7215 79.7832 97.125C79.7832 95.5285 78.4888 94.2344 76.8926 94.2344Z" fill="#57565C"/>
<path d="M25.5433 78.8938C25.006 78.3562 24.2602 78.0469 23.4971 78.0469C22.7365 78.0469 21.9908 78.3562 21.4534 78.8938C20.9157 79.4315 20.6064 80.1773 20.6064 80.9375C20.6064 81.6977 20.9155 82.4435 21.4534 82.9812C21.9939 83.5188 22.7365 83.8281 23.4971 83.8281C24.2602 83.8281 25.0031 83.5188 25.5433 82.9812C26.081 82.4435 26.3906 81.6977 26.3906 80.9375C26.3906 80.1773 26.0813 79.4315 25.5433 78.8938Z" fill="#57565C"/>
<path d="M25.5433 95.0813C25.0031 94.5437 24.2602 94.2344 23.4971 94.2344C22.7365 94.2344 21.9939 94.5437 21.4534 95.0813C20.9157 95.619 20.6064 96.3648 20.6064 97.125C20.6064 97.8852 20.9155 98.631 21.4534 99.1687C21.9939 99.7063 22.7365 100.016 23.4971 100.016C24.2602 100.016 25.0031 99.7063 25.5433 99.1687C26.081 98.631 26.3906 97.8852 26.3906 97.125C26.3906 96.3648 26.0813 95.619 25.5433 95.0813Z" fill="#57565C"/>
<path d="M23.4971 110.422C22.7365 110.422 21.9939 110.731 21.4534 111.269C20.9157 111.806 20.6064 112.552 20.6064 113.312C20.6064 114.073 20.9155 114.819 21.4534 115.356C21.9908 115.894 22.7365 116.203 23.4971 116.203C24.2602 116.203 25.006 115.894 25.5433 115.356C26.081 114.819 26.3906 114.073 26.3906 113.312C26.3906 112.552 26.0813 111.806 25.5433 111.269C25.0031 110.731 24.2602 110.422 23.4971 110.422Z" fill="#57565C"/>
<path d="M76.8926 78.0469H35.8457C34.2495 78.0469 32.9551 79.341 32.9551 80.9375C32.9551 82.534 34.2495 83.8281 35.8457 83.8281H76.8926C78.4888 83.8281 79.7832 82.534 79.7832 80.9375C79.7832 79.341 78.4888 78.0469 76.8926 78.0469Z" fill="#57565C"/>
<path d="M141.93 37.6708C139.122 36.0494 135.85 35.6187 132.718 36.4579C129.585 37.2973 126.967 39.3063 125.346 42.1145L88.9698 105.119C88.7706 105.465 88.6446 105.848 88.6003 106.244L86.0398 129.18C85.9126 130.321 86.4728 131.429 87.4672 132.004C87.9161 132.263 88.4148 132.391 88.9122 132.391C89.517 132.391 90.1194 132.202 90.6267 131.828L109.209 118.143C109.53 117.906 109.799 117.606 109.998 117.26L146.374 54.2554C149.721 48.458 147.728 41.0181 141.93 37.6708ZM93.8555 111.278L102.222 116.108L92.5183 123.255L93.8555 111.278ZM106.437 111.866L95.4219 105.507L124.613 54.9469L135.628 61.3062L106.437 111.866ZM141.367 51.3645L138.518 56.2997L127.503 49.9403L130.353 45.0051C131.202 43.5341 132.573 42.4819 134.214 42.0423C135.855 41.6023 137.569 41.8284 139.039 42.6776C140.51 43.5269 141.563 44.8982 142.002 46.5389C142.442 48.1796 142.217 49.8935 141.367 51.3645Z" fill="#57565C"/>
</svg>
