<svg width="156" height="156" viewBox="0 0 156 156" fill="none" xmlns="http://www.w3.org/2000/svg">
<path d="M82.875 129.188V148.688H126.75V129.188H119.438H90.1875H82.875Z" fill="#F65D77"/>
<path d="M29.25 129.188V148.688H73.125V129.188H65.8125H36.5625H29.25Z" fill="#F65D77"/>
<path d="M83.5014 10.0669L78 7.3125L72.5034 10.0571C68.1961 12.2118 63.4234 13.2696 58.6091 13.1365C53.7947 13.0034 49.0877 11.6836 44.9061 9.29419L41.4375 7.3125V38.025C41.4377 48.6276 44.3195 59.0308 49.7746 68.1224C55.2297 77.214 63.0531 84.6521 72.4084 89.6415L78 92.625L83.5916 89.6415C92.9469 84.6521 100.77 77.214 106.225 68.1224C111.681 59.0308 114.562 48.6276 114.562 38.025V7.3125L111.089 9.29662C106.909 11.6855 102.204 13.0056 97.3918 13.14C92.5793 13.2744 87.8081 12.2188 83.5014 10.0669ZM104.812 38.025C104.822 46.8625 102.424 55.5357 97.8777 63.1138C93.3309 70.6919 86.8063 76.8889 79.0042 81.0396L78 81.5734L76.9982 81.0396C69.1951 76.8898 62.6696 70.6931 58.1223 63.1149C53.575 55.5366 51.1776 46.8629 51.1875 38.025V22.0179C53.8915 22.6025 56.65 22.8975 59.4165 22.8979C65.474 22.8877 71.4469 21.4744 76.8666 18.7687L78 18.213L79.1505 18.7882C84.563 21.4892 90.5272 22.9008 96.5762 22.9125C99.3455 22.9081 102.106 22.6091 104.812 22.0204V38.025Z" fill="#F65D77"/>
<path d="M142.791 50.9975C140.286 50.5272 137.695 51.0337 135.551 52.4129C133.407 53.7922 131.873 55.9397 131.262 58.4148L125.504 79.8648C123.995 78.8663 122.238 78.3087 120.429 78.2544C118.621 78.2002 116.833 78.6515 115.267 79.5576L98.5993 89.3345C95.3037 91.2745 92.5702 94.0394 90.6678 97.3569C88.7654 100.674 87.7598 104.43 87.75 108.254V126.75H82.875C82.2285 126.75 81.6085 127.007 81.1514 127.464C80.6943 127.921 80.4375 128.541 80.4375 129.188V148.688C80.4375 149.334 80.6943 149.954 81.1514 150.411C81.6085 150.868 82.2285 151.125 82.875 151.125H126.75C127.396 151.125 128.016 150.868 128.474 150.411C128.931 149.954 129.188 149.334 129.188 148.688V129.188C129.188 128.541 128.931 127.921 128.474 127.464C128.016 127.007 127.396 126.75 126.75 126.75H121.875V123.923C121.875 122.868 122.103 121.825 122.543 120.867C122.984 119.908 123.626 119.057 124.427 118.37L135.793 108.62C137.66 107.024 139 104.899 139.635 102.526L150.211 63.0582C150.433 62.2308 150.544 61.3775 150.54 60.5208C150.528 58.2877 149.753 56.1259 148.344 54.3937C146.934 52.6616 144.975 51.4633 142.791 50.9975ZM124.313 146.25H85.3125V131.625H124.313V146.25ZM145.504 61.7931L134.925 101.266C134.546 102.69 133.742 103.965 132.622 104.922L121.256 114.672C119.921 115.816 118.85 117.235 118.116 118.832C117.381 120.428 117 122.165 117 123.923V126.75H92.625V108.254C92.6312 105.28 93.4117 102.359 94.8896 99.7788C96.3675 97.1982 98.492 95.0469 101.054 93.5367L117.702 83.7696C118.444 83.3435 119.284 83.1192 120.14 83.1188C121.044 83.1108 121.933 83.3581 122.703 83.8324C123.474 84.3066 124.095 84.9887 124.495 85.8001C125.028 86.9783 125.096 88.3147 124.684 89.5405C124.272 90.7664 123.411 91.7909 122.275 92.4081L108.625 100.274C108.347 100.434 108.104 100.647 107.909 100.901C107.714 101.155 107.57 101.445 107.487 101.755C107.404 102.064 107.383 102.387 107.425 102.705C107.466 103.022 107.57 103.328 107.73 103.606C107.89 103.884 108.103 104.127 108.357 104.322C108.612 104.517 108.902 104.66 109.211 104.743C109.52 104.826 109.843 104.848 110.161 104.806C110.478 104.764 110.785 104.661 111.062 104.501L124.712 96.6348C126.757 95.4952 128.335 93.6714 129.168 91.4838C130.001 89.2963 130.036 86.885 129.268 84.674L135.974 59.6896C136.277 58.4283 137.044 57.3272 138.122 56.6048C139.2 55.8824 140.51 55.5915 141.792 55.7896C142.879 56.0211 143.855 56.616 144.559 57.4765C145.263 58.3369 145.653 59.4115 145.665 60.5232C145.668 60.9518 145.614 61.3789 145.504 61.7931Z" fill="#595354"/>
<path d="M73.125 126.75H68.25V108.254C68.2418 104.43 67.2383 100.675 65.3381 97.3571C63.4379 94.0393 60.7065 91.2733 57.4129 89.3316L40.7257 79.5426C39.1584 78.6389 37.3703 78.1899 35.5619 78.2459C33.7536 78.3018 31.9967 78.8606 30.4882 79.8595L24.7333 58.4094C24.1194 55.9352 22.5832 53.7892 20.4391 52.4103C18.2949 51.0315 15.7049 50.5242 13.199 50.9921C11.9033 51.2659 10.6767 51.8003 9.59396 52.563C8.51123 53.3257 7.59497 54.3007 6.90091 55.4287C6.20685 56.5566 5.7495 57.814 5.55668 59.1243C5.36386 60.4346 5.4396 61.7704 5.7793 63.0504L16.358 102.523C16.9912 104.896 18.3299 107.021 20.1971 108.617L31.5632 118.367C32.366 119.053 33.0106 119.905 33.4529 120.864C33.8951 121.823 34.1244 122.866 34.125 123.922V126.75H29.25C28.6035 126.75 27.9835 127.006 27.5264 127.464C27.0693 127.921 26.8125 128.541 26.8125 129.187V148.687C26.8125 149.334 27.0693 149.954 27.5264 150.411C27.9835 150.868 28.6035 151.125 29.25 151.125H73.125C73.7714 151.125 74.3914 150.868 74.8485 150.411C75.3057 149.954 75.5625 149.334 75.5625 148.687V129.187C75.5625 128.541 75.3057 127.921 74.8485 127.464C74.3914 127.006 73.7714 126.75 73.125 126.75ZM34.7441 114.667L23.378 104.917C22.2567 103.96 21.4533 102.685 21.0746 101.261L10.4959 61.7903C10.386 61.3768 10.3319 60.9505 10.335 60.5228C10.3419 59.4066 10.7303 58.3264 11.4357 57.4613C12.1411 56.5963 13.1211 55.9985 14.213 55.7672C15.495 55.5708 16.8041 55.8625 17.8814 56.5846C18.9587 57.3067 19.7259 58.4067 20.0314 59.6672L26.7369 84.6491C25.9677 86.8605 26.0029 89.2723 26.8361 91.4604C27.6693 93.6485 29.2473 95.4727 31.2926 96.6124L44.9426 104.478C45.5031 104.801 46.169 104.889 46.7939 104.721C47.4188 104.553 47.9514 104.144 48.2747 103.584C48.5979 103.023 48.6852 102.357 48.5175 101.732C48.3497 101.107 47.9406 100.575 47.3801 100.252L33.7301 92.3858C32.5933 91.7689 31.7321 90.7446 31.3197 89.5187C30.9073 88.2928 30.9742 86.9562 31.5071 85.7777C31.9106 84.9721 32.532 84.2958 33.3007 83.8257C34.0694 83.3556 34.9546 83.1105 35.8556 83.1184C36.7051 83.1165 37.5403 83.3367 38.2785 83.757L54.9461 93.5387C57.5081 95.0481 59.6327 97.1989 61.1107 99.7792C62.5887 102.36 63.3691 105.28 63.375 108.254V126.75H39V123.922C39.0002 122.164 38.62 120.426 37.8854 118.829C37.1508 117.231 36.0792 115.811 34.7441 114.667ZM70.6875 146.25H31.6875V131.625H70.6875V146.25Z" fill="#595354"/>
<path d="M117 38.0249V7.31243C117.001 6.88415 116.889 6.46321 116.675 6.092C116.462 5.72078 116.154 5.41239 115.783 5.19788C115.413 4.98338 114.992 4.87033 114.564 4.87012C114.135 4.86991 113.715 4.98254 113.344 5.19668L109.87 7.18081C106.04 9.37494 101.727 10.5875 97.3143 10.7104C92.9019 10.8333 88.5277 9.86276 84.5813 7.88525L79.0701 5.13087C78.7318 4.96181 78.3587 4.8738 77.9805 4.8738C77.6023 4.8738 77.2293 4.96181 76.891 5.13087L71.4188 7.8755C67.472 9.85645 63.0961 10.8295 58.6817 10.7079C54.2673 10.5862 49.9517 9.37367 46.12 7.17837L42.6563 5.19668C42.2854 4.98254 41.8646 4.86991 41.4363 4.87012C41.0081 4.87033 40.5874 4.98338 40.2167 5.19788C39.846 5.41239 39.5384 5.72078 39.3248 6.092C39.1112 6.46321 38.9992 6.88415 39 7.31243V38.0249C38.9882 49.0719 41.9848 59.9135 47.6683 69.3863C53.3518 78.8591 61.5076 86.6054 71.2603 91.7937L76.852 94.7748C77.2052 94.9634 77.5996 95.0621 78 95.0621C78.4005 95.0621 78.7948 94.9634 79.1481 94.7748L84.7397 91.7937C94.4928 86.6058 102.649 78.8596 108.332 69.3867C114.016 59.9139 117.012 49.072 117 38.0249ZM78 89.8632L73.5565 87.4916C64.5836 82.7187 57.0799 75.5923 51.8507 66.8775C46.6215 58.1626 43.8643 48.1882 43.875 38.0249V11.5122C48.3891 14.0609 53.4605 15.4605 58.6427 15.5881C63.825 15.7156 68.9591 14.567 73.593 12.2435L77.9805 10.0497L82.4022 12.2581C87.0378 14.5805 92.1735 15.7271 97.3568 15.597C102.54 15.467 107.612 14.0642 112.125 11.5122V38.0249C112.136 48.1884 109.379 58.1629 104.15 66.8779C98.9208 75.5929 91.4168 82.7191 82.4436 87.4916L78 89.8632Z" fill="#595354"/>
<path d="M107.25 22.0207C107.25 21.6568 107.169 21.2975 107.012 20.9692C106.855 20.6408 106.627 20.3517 106.344 20.1231C106.061 19.8945 105.73 19.7322 105.376 19.648C105.022 19.5639 104.654 19.56 104.298 19.6368C96.1643 21.3707 87.6831 20.3029 80.2328 16.607L79.0823 16.0342C78.7421 15.8627 78.3664 15.7734 77.9854 15.7734C77.6044 15.7734 77.2288 15.8627 76.8885 16.0342L75.7624 16.5972C68.3111 20.2983 59.8267 21.3687 51.6897 19.6344C51.3348 19.5597 50.9678 19.5651 50.6154 19.6502C50.2629 19.7353 49.9339 19.898 49.6522 20.1264C49.3706 20.3548 49.1435 20.6431 48.9874 20.9704C48.8313 21.2977 48.7502 21.6556 48.75 22.0182V38.0253C48.7397 47.3048 51.2568 56.412 56.0313 64.369C60.8058 72.326 67.6572 78.8324 75.8502 83.1898L76.852 83.726C77.2049 83.9142 77.5988 84.0126 77.9988 84.0126C78.3988 84.0126 78.7927 83.9142 79.1457 83.726L80.1499 83.1898C88.3428 78.8324 95.1943 72.326 99.9687 64.369C104.743 56.412 107.26 47.3048 107.25 38.0253V22.0207ZM102.375 38.0253C102.384 46.3934 100.122 54.607 95.8289 61.7901C91.5362 68.9732 85.3741 74.8563 78 78.812C70.6259 74.8563 64.4639 68.9732 60.1711 61.7901C55.8784 54.607 53.6159 46.3934 53.625 38.0253V24.9286C61.9497 26.0839 70.4292 24.7018 77.9562 20.9628L78 20.9384L78.0585 20.9701C85.5807 24.7076 94.0556 26.0881 102.375 24.9311V38.0253Z" fill="#595354"/>
<path d="M91.789 33.9521L73.125 52.6161L65.5151 45.0062C65.0554 44.5622 64.4397 44.3165 63.8006 44.3221C63.1615 44.3276 62.5501 44.584 62.0982 45.0359C61.6463 45.4878 61.3899 46.0992 61.3844 46.7383C61.3788 47.3774 61.6245 47.9931 62.0685 48.4528L71.4017 57.786C71.8588 58.243 72.4787 58.4997 73.125 58.4997C73.7713 58.4997 74.3912 58.243 74.8483 57.786L95.2356 37.3988C95.4684 37.1739 95.6541 36.905 95.7818 36.6076C95.9096 36.3102 95.9768 35.9903 95.9796 35.6667C95.9824 35.343 95.9208 35.0221 95.7982 34.7225C95.6756 34.4229 95.4946 34.1508 95.2658 33.9219C95.0369 33.6931 94.7648 33.5121 94.4652 33.3895C94.1657 33.267 93.8447 33.2053 93.521 33.2081C93.1974 33.2109 92.8775 33.2782 92.5801 33.4059C92.2828 33.5336 92.0138 33.7193 91.789 33.9521Z" fill="#57565C"/>
</svg>
