<svg width="30" height="30" viewBox="0 0 30 30" fill="none" xmlns="http://www.w3.org/2000/svg">
<path d="M14.2477 0.00244326C11.8415 0.0349433 6.66396 0.429943 3.76771 3.08369C1.61771 5.22119 0.866461 8.37244 0.778961 12.2749C0.703961 16.1624 0.616461 23.4624 7.65396 25.4512V28.4762C7.65396 28.4762 7.60646 29.6887 8.40646 29.9387C9.39396 30.2512 9.95646 29.3149 10.894 28.3149L12.644 26.3399C17.4565 26.7399 21.144 25.8162 21.569 25.6787C22.544 25.3662 28.0452 24.6649 28.9452 17.3637C29.8702 9.82494 28.4952 5.07494 26.0202 2.92494L26.0077 2.92244C25.2577 2.23494 22.2577 0.0474433 15.5452 0.0224433C15.5452 0.0224433 15.0502 -0.00880674 14.2477 0.00244326ZM14.3315 2.12369C15.0127 2.11994 15.4315 2.14869 15.4315 2.14869C21.1065 2.16119 23.8202 3.87369 24.4577 4.44869C26.5452 6.23494 27.6177 10.5187 26.8327 16.8137C26.0827 22.9137 21.6202 23.3012 20.7952 23.5637C20.4452 23.6762 17.1952 24.4762 13.1052 24.2137C13.1052 24.2137 10.0565 27.8899 9.10646 28.8399C8.95646 29.0024 8.78146 29.0524 8.66896 29.0274C8.50646 28.9899 8.45646 28.7899 8.46896 28.5149L8.49396 23.4912C2.53021 21.8412 2.88021 15.6137 2.94271 12.3637C3.01771 9.11369 3.63021 6.44869 5.44271 4.64869C7.88896 2.43619 12.2865 2.13619 14.3302 2.12369H14.3315ZM14.7815 5.37369C14.7323 5.37353 14.6835 5.38307 14.6381 5.40178C14.5926 5.42049 14.5512 5.448 14.5164 5.48272C14.4815 5.51744 14.4539 5.5587 14.435 5.60413C14.4162 5.64955 14.4065 5.69826 14.4065 5.74744C14.4065 5.8469 14.446 5.94228 14.5163 6.01261C14.5866 6.08293 14.682 6.12244 14.7815 6.12244C15.7108 6.10471 16.6344 6.27122 17.499 6.61234C18.3636 6.95347 19.1521 7.46246 19.819 8.10994C21.1815 9.43494 21.8452 11.2099 21.8702 13.5349C21.8702 13.5842 21.8799 13.633 21.8988 13.6784C21.9176 13.7239 21.9452 13.7653 21.98 13.8001C22.0149 13.8349 22.0562 13.8626 22.1017 13.8814C22.1472 13.9002 22.196 13.9099 22.2452 13.9099V13.8987C22.3447 13.8987 22.4401 13.8592 22.5104 13.7889C22.5807 13.7185 22.6202 13.6231 22.6202 13.5237C22.6666 12.4303 22.4899 11.3389 22.1009 10.316C21.712 9.29307 21.1189 8.36003 20.3577 7.57369C18.8702 6.12369 16.9927 5.37369 14.7802 5.37369H14.7815ZM9.83896 6.23619C9.57313 6.19831 9.3023 6.25116 9.07021 6.38619H9.05521C8.54271 6.68619 8.07021 7.06119 7.62021 7.56119C7.28271 7.96119 7.09396 8.35994 7.04396 8.74744C7.01455 8.97471 7.03589 9.20567 7.10646 9.42369L7.13146 9.43619C7.51675 10.5689 8.01948 11.6581 8.63146 12.6862C9.42473 14.126 10.3993 15.4581 11.5315 16.6499L11.569 16.6999L11.619 16.7374L11.6565 16.7749L11.694 16.8124C12.8905 17.9474 14.2262 18.9261 15.669 19.7249C17.319 20.6249 18.3215 21.0499 18.9215 21.2249V21.2374C19.0965 21.2874 19.2565 21.3124 19.419 21.3124C19.9311 21.2751 20.416 21.0674 20.7965 20.7224C21.284 20.2849 21.6715 19.7999 21.959 19.2874V19.2749C22.2465 18.7374 22.1465 18.2237 21.734 17.8737C20.9026 17.1464 20.0026 16.5017 19.0465 15.9487C18.409 15.5987 17.759 15.8112 17.4965 16.1612L16.934 16.8724C16.6465 17.2224 16.1215 17.1724 16.1215 17.1724L16.1065 17.1849C12.2065 16.1849 11.169 12.2362 11.169 12.2362C11.169 12.2362 11.119 11.6987 11.4815 11.4237L12.1815 10.8612C12.519 10.5862 12.7565 9.93619 12.394 9.29869C11.8417 8.34211 11.1969 7.44197 10.469 6.61119C10.3106 6.41481 10.0871 6.28175 9.83896 6.23619ZM15.4302 7.34869C15.3308 7.34902 15.2355 7.38885 15.1654 7.45941C15.0953 7.52997 15.0561 7.62549 15.0565 7.72494C15.0568 7.8244 15.0966 7.91965 15.1672 7.98974C15.2377 8.05983 15.3333 8.09902 15.4327 8.09869C16.6836 8.12041 17.8749 8.63737 18.7452 9.53619C19.1379 9.96934 19.4397 10.4768 19.6329 11.0285C19.8262 11.5803 19.9068 12.1652 19.8702 12.7487C19.8705 12.8479 19.9102 12.943 19.9805 13.013C20.0508 13.0831 20.146 13.1224 20.2452 13.1224L20.2577 13.1374C20.3071 13.1374 20.3559 13.1277 20.4015 13.1088C20.4471 13.0899 20.4885 13.0621 20.5233 13.0272C20.5582 12.9922 20.5858 12.9507 20.6045 12.9051C20.6233 12.8594 20.6329 12.8105 20.6327 12.7612C20.6702 11.2737 20.2077 10.0237 19.2952 9.02369C18.3827 8.02369 17.1077 7.46119 15.4827 7.34869C15.4652 7.34747 15.4477 7.34747 15.4302 7.34869ZM16.0427 9.37244C15.9926 9.37097 15.9426 9.37938 15.8957 9.39721C15.8488 9.41503 15.8059 9.44192 15.7694 9.47634C15.7329 9.51075 15.7035 9.55202 15.683 9.59779C15.6624 9.64355 15.6511 9.69292 15.6496 9.74307C15.6481 9.79322 15.6565 9.84316 15.6743 9.89006C15.6922 9.93696 15.7191 9.97988 15.7535 10.0164C15.7879 10.0529 15.8292 10.0823 15.8749 10.1028C15.9207 10.1234 15.9701 10.1347 16.0202 10.1362C17.2577 10.1987 17.8577 10.8237 17.9327 12.1112C17.936 12.2085 17.9769 12.3007 18.0469 12.3683C18.1168 12.436 18.2104 12.4737 18.3077 12.4737H18.3202C18.3706 12.4721 18.4201 12.4604 18.4658 12.4393C18.5116 12.4182 18.5526 12.388 18.5864 12.3507C18.6203 12.3134 18.6462 12.2696 18.6628 12.222C18.6793 12.1744 18.6861 12.124 18.6827 12.0737C18.5952 10.3987 17.6827 9.45994 16.0577 9.37244C16.0527 9.37234 16.0477 9.37234 16.0427 9.37244Z" fill="#8A10D6"/>
</svg>
